<svg width="24" height="24" viewBox="0 0 24 24" fill="none" xmlns="http://www.w3.org/2000/svg">
<path d="M22.18 10.3816L22.074 9.9321H12.3034V14.0674H18.1412C17.5351 16.9455 14.7226 18.4605 12.4253 18.4605C10.7537 18.4605 8.9917 17.7574 7.82545 16.6272C7.21014 16.0215 6.72035 15.3002 6.38414 14.5049C6.04792 13.7096 5.87187 12.8557 5.86608 11.9923C5.86608 10.2504 6.64889 8.50803 7.78795 7.36194C8.92701 6.21585 10.6473 5.5746 12.3578 5.5746C14.3167 5.5746 15.7206 6.61475 16.2456 7.08913L19.1842 4.166C18.3222 3.4085 15.954 1.49976 12.2631 1.49976C9.41545 1.49976 6.68498 2.59054 4.68905 4.57991C2.71936 6.53882 1.69983 9.37147 1.69983 11.9998C1.69983 14.628 2.66452 17.3191 4.57327 19.2935C6.6128 21.3991 9.50123 22.4997 12.4755 22.4997C15.1815 22.4997 17.7465 21.4394 19.5747 19.5157C21.3719 17.6219 22.3014 15.0016 22.3014 12.2548C22.3014 11.0983 22.1851 10.4116 22.18 10.3816Z" fill="#2D3748"/>
</svg>
